<svg id="Layer_1" data-name="Layer 1" xmlns="http://www.w3.org/2000/svg" viewBox="0 0 64 64"><defs><style>.cls-1{fill:#012c92;fill-rule:evenodd;}</style></defs><path class="cls-1" d="M29.46,1.31A29.44,29.44,0,0,0,8.06,13.85a25.86,25.86,0,0,0-2.19,3.62A31.67,31.67,0,0,0,6,46.73,30.55,30.55,0,0,0,19.55,60,27.83,27.83,0,0,0,32,62.8a27.76,27.76,0,0,0,12-2.63A30.33,30.33,0,0,0,57.41,48a30.78,30.78,0,0,0,4.14-12.57c.27-2.46.05-9.61-.31-10-.1-.12-.38-.18-1-.22a3.19,3.19,0,0,1-2.24-.8A2.74,2.74,0,0,1,57.11,22a8.48,8.48,0,0,1,.16-1.77c.17-.69.17-.77,0-1s-.45-.3-1.52,0a6.14,6.14,0,0,1-5.48-1.28c-2.23-1.89-2.41-4.31-.52-7.1a9,9,0,0,1,.91-1.13c.38-.41.47-.55.47-.84s-.07-.42-.89-1.12a29.76,29.76,0,0,0-6-3.79A29.31,29.31,0,0,0,29.46,1.31Z"/></svg>